<?xml version="1.0" standalone="no"?>
<!DOCTYPE svg PUBLIC "-//W3C//DTD SVG 20010904//EN"
 "http://www.w3.org/TR/2001/REC-SVG-20010904/DTD/svg10.dtd">
<svg version="1.0" xmlns="http://www.w3.org/2000/svg"
 width="420.000000pt" height="599.000000pt" viewBox="0 0 420.000000 599.000000"
 preserveAspectRatio="xMidYMid meet">
<metadata>
Created by potrace 1.15, written by Peter Selinger 2001-2017
</metadata>
<g transform="translate(0.000000,599.000000) scale(0.100000,-0.100000)"
fill="#000000" stroke="none">
<path d="M1474 5532 c-490 -251 -907 -467 -928 -479 l-36 -22 0 -1176 0 -1175
215 0 215 0 0 -135 0 -135 120 0 120 0 0 1174 0 1175 600 303 600 303 0 313
c0 171 -3 312 -7 311 -5 0 -409 -206 -899 -457z"/>
<path d="M2640 4270 l0 -150 80 0 80 0 0 150 0 150 -80 0 -80 0 0 -150z"/>
<path d="M2210 4310 l0 -90 75 0 75 0 0 90 0 90 -75 0 -75 0 0 -90z"/>
<path d="M3442 4118 l3 -93 83 -3 82 -3 0 96 0 95 -85 0 -86 0 3 -92z"/>
<path d="M2960 3975 l0 -215 150 0 150 0 0 215 0 215 -150 0 -150 0 0 -215z"/>
<path d="M1960 4060 l0 -110 70 0 70 0 0 110 0 110 -70 0 -70 0 0 -110z"/>
<path d="M2300 3920 l0 -150 110 0 110 0 0 150 0 150 -110 0 -110 0 0 -150z"/>
<path d="M3410 3675 l0 -205 145 0 145 0 0 205 0 205 -145 0 -145 0 0 -205z"/>
<path d="M2630 3610 l0 -100 105 0 105 0 0 100 0 100 -105 0 -105 0 0 -100z"/>
<path d="M3030 2416 l0 -1174 -602 -305 -603 -304 -3 -312 c-2 -219 1 -311 9
-311 11 0 1402 708 1697 863 l172 91 0 1178 0 1178 -215 0 -215 0 0 135 0 135
-120 0 -120 0 0 -1174z"/>
<path d="M510 2330 l0 -200 145 0 145 0 0 200 0 200 -145 0 -145 0 0 -200z"/>
<path d="M1370 2390 l0 -100 105 0 105 0 0 100 0 100 -105 0 -105 0 0 -100z"/>
<path d="M950 2025 l0 -215 150 0 150 0 0 215 0 215 -150 0 -150 0 0 -215z"/>
<path d="M1690 2080 l0 -150 110 0 111 0 -3 148 -3 147 -107 3 -108 3 0 -151z"/>
<path d="M2110 1940 l0 -110 70 0 70 0 0 110 0 110 -70 0 -70 0 0 -110z"/>
<path d="M600 1885 l0 -95 80 0 80 0 0 95 0 95 -80 0 -80 0 0 -95z"/>
<path d="M1410 1730 l0 -150 80 0 80 0 0 150 0 150 -80 0 -80 0 0 -150z"/>
<path d="M1850 1690 l0 -90 75 0 75 0 0 90 0 90 -75 0 -75 0 0 -90z"/>
</g>
</svg>
